<svg xmlns="http://www.w3.org/2000/svg" viewBox="0 0 928.41 256.03"><defs><style>.cls-1{fill:#20170d;}</style></defs><g id="Layer_2" data-name="Layer 2"><g id="Layer_1-2" data-name="Layer 1"><path class="cls-1" d="M3.31,198.71v-1.53c6.37-2.55,8.92-12,8.92-20.38V40.51C12.23,29,7.9,22.93,0,16.56V15C10.7,11.72,34.9,4.33,48.4,0h1.28V176.8c0,8.41,2.8,17.83,9.17,20.38v1.53Z"/><path class="cls-1" d="M81.52,130.69c0-38,29.05-70.31,69-70.31,41.53,0,69,30.31,69,69.8,0,38.47-28.78,70.31-69,70.31C108.78,200.49,81.52,170.69,81.52,130.69Zm98.09-.25c-.26-46.12-11-66.75-29.05-66.75-17.83,0-28.78,20.63-29,66.75,0,46.62,11,66.74,29,66.74S179.61,177.06,179.61,130.44Z"/><path class="cls-1" d="M571,117.44v3.31H483.58c0,33.38,16.05,60.89,45.35,60.89,13,0,26.49-3.06,38.47-17.58l.76,1.28c-10.19,19.1-23.44,35.15-55.54,35.15-40.76,0-69-27-69-69.8,0-39,26.75-70.31,67.25-70.31C552.88,60.38,570.71,85.85,571,117.44Zm-33.89.51v-.25c0-36.69-7.64-54-25.22-54-18.85,0-27.77,20.12-28.28,54Z"/><path class="cls-1" d="M701.15,67l-9.68,25.48H691C681,82,672.62,78.72,662.69,78.72c-10.45,0-16.05,7.13-18.6,10.7V176.8c0,8.41,2.55,17.83,8.92,20.38v1.53H597.47v-1.53c6.37-2.55,8.92-11.21,8.92-20.38V102.67c0-10.7-4.08-17.33-12-23.7V77.7l46.88-15h1.53V87.13c9.17-15.29,23.94-26.75,38.72-26.75C691,60.63,696.83,63.43,701.15,67Z"/><path class="cls-1" d="M719.25,198.71v-1.53c6.37-2.55,8.92-12,8.92-20.38V40.51c0-11.47-4.33-17.58-12.23-23.95V15c10.7-3.31,34.9-10.7,48.4-15h1.28V176.8c0,8.41,2.8,17.83,9.17,20.38v1.53Z"/><path class="cls-1" d="M891,65.22h37.45v1.27c-9.94,3.82-16.56,14-19.62,21.4L861.41,207.63l-4.08,11c-9.68,25-24.45,37.45-40,37.45a29.86,29.86,0,0,1-21.15-9.17l7.13-19.11h1.28c5.86,6.63,15,11.47,23.44,11.47,9.68-.26,19.1-5.86,25-18.6l4.33-9.68-51-120.76c-4.33-10.44-8.4-18.34-17.07-23.43V65.22H853v1.53c-8.92,3.82-14,10.19-7.9,23.94L876.18,161,903.44,91c3.82-9.43-2-19.87-12.48-24.46Z"/><path class="cls-1" d="M345.25,71.87,331.64,85.48,318,71.87c-15.76-15.77-41.56-15.77-57.68,0-15.76,15.76-15.76,41.56,0,57.68l70.94,70.94,70.94-70.94C418,113.79,418,88,402.22,71.87c-15.41-15.77-41.2-15.77-57,0m39.06,39.05-52.67,53-52.67-53a14.69,14.69,0,0,1,20.78-20.78L331.64,122l31.89-31.89a14.69,14.69,0,0,1,20.78,20.78"/></g></g></svg>